<svg width="53" height="54" viewBox="0 0 53 54" fill="none" xmlns="http://www.w3.org/2000/svg">
<path d="M26.4451 5C14.579 5 4.95898 14.7008 4.95898 26.6667C4.95898 36.8975 11.9932 45.4667 21.4496 47.7383C20.9604 47.6208 20.4753 47.4892 19.9993 47.3392V42.375C19.9993 42.375 19.1935 42.6458 18.1192 42.6458C15.1137 42.6458 13.865 39.9417 13.5534 38.5833C13.3642 37.7558 12.87 36.9717 12.3395 36.4925C11.7056 35.9225 11.4089 35.9208 11.4048 35.7258C11.3966 35.3167 11.9486 35.3333 12.2105 35.3333C13.5534 35.3333 14.5715 36.7742 15.0442 37.5192C16.2152 39.3583 17.4722 39.6667 18.1192 39.6667C18.925 39.6667 19.6208 39.545 20.1001 39.3117C20.3216 37.7383 21.0157 36.3367 22.1479 35.3333C17.1094 34.3175 13.5534 31.4033 13.5534 26.6667C13.5534 24.2267 14.5244 21.9842 16.1425 20.1733C15.9772 19.7008 15.702 18.745 15.702 17.1875C15.702 16.1583 15.7731 14.895 16.2392 13.6667C16.2392 13.6667 19.3034 13.6883 22.1933 16.4483C23.5271 16.0567 24.9543 15.8333 26.4451 15.8333C27.9359 15.8333 29.3631 16.0567 30.6969 16.4483C33.5867 13.6883 36.651 13.6667 36.651 13.6667C37.1196 14.895 37.1882 16.1583 37.1882 17.1875C37.1882 18.8667 36.9667 19.8458 36.8312 20.2683C38.3996 22.0625 39.3368 24.27 39.3368 26.6667C39.3368 31.4033 35.7808 34.3175 30.7423 35.3333C32.0877 36.525 32.8909 38.2608 32.8909 40.2083V47.3392C32.4149 47.49 31.9307 47.6208 31.4406 47.7383C40.897 45.4667 47.9312 36.8975 47.9312 26.6667C47.9312 14.7008 38.3112 5 26.4451 5ZM27.9433 48.275C27.4483 48.31 26.9492 48.3333 26.4451 48.3333C26.9492 48.3333 27.4475 48.3092 27.9433 48.275ZM26.4451 48.3333C25.941 48.3333 25.4419 48.31 24.9469 48.275C25.4427 48.3092 25.941 48.3333 26.4451 48.3333ZM24.6171 48.25C23.6114 48.1642 22.6247 48.0092 21.6636 47.7883C22.6255 48.0083 23.6114 48.1642 24.6171 48.25Z" fill="#969F91"/>
</svg>
