<svg width="53" height="54" viewBox="0 0 53 54" fill="none" xmlns="http://www.w3.org/2000/svg">
<path d="M44.0265 5H10.1776C7.25809 5 4.88867 7.38933 4.88867 10.3333V44.4667C4.88867 47.4107 7.25809 49.8 10.1776 49.8H44.0265C46.9459 49.8 49.3153 47.4107 49.3153 44.4667V10.3333C49.3153 7.38933 46.9459 5 44.0265 5ZM18.6398 22.0667V42.3333H12.2931V22.0667H18.6398ZM12.2931 16.168C12.2931 14.6747 13.5625 13.5333 15.4665 13.5333C17.3705 13.5333 18.5657 14.6747 18.6398 16.168C18.6398 17.6613 17.4551 18.8667 15.4665 18.8667C13.5625 18.8667 12.2931 17.6613 12.2931 16.168ZM41.9109 42.3333H35.5642C35.5642 42.3333 35.5642 32.456 35.5642 31.6667C35.5642 29.5333 34.5065 27.4 31.862 27.3573H31.7774C29.2176 27.3573 28.1598 29.5547 28.1598 31.6667C28.1598 32.6373 28.1598 42.3333 28.1598 42.3333H21.8131V22.0667H28.1598V24.7973C28.1598 24.7973 30.2013 22.0667 34.3055 22.0667C38.5049 22.0667 41.9109 24.9787 41.9109 30.8773V42.3333Z" fill="#969F91"/>
</svg>
