<svg width="53" height="54" viewBox="0 0 53 54" fill="none" xmlns="http://www.w3.org/2000/svg">
<path d="M11.6351 4.2666C7.55795 4.2666 4.23047 7.62177 4.23047 11.7328V41.5976C4.23047 45.7086 7.55795 49.0638 11.6351 49.0638H41.2535C45.3306 49.0638 48.6581 45.7086 48.6581 41.5976V11.7328C48.6581 7.62177 45.3306 4.2666 41.2535 4.2666H11.6351ZM11.6351 6.3998H41.2535C44.1875 6.3998 46.5425 8.77441 46.5425 11.7328V41.5976C46.5425 44.556 44.1875 46.9306 41.2535 46.9306H11.6351C8.70109 46.9306 6.34607 44.556 6.34607 41.5976V11.7328C6.34607 8.77441 8.70109 6.3998 11.6351 6.3998ZM13.8416 13.866L23.5973 27.8422L13.7507 39.4644H16.3952L24.7915 29.5525L31.7085 39.4644H40.1048L29.3945 24.1195L38.0801 13.866H35.4356L28.2004 22.4092L22.2379 13.866H13.8416ZM17.891 15.9992H21.1325L36.0554 37.3312H32.8138L17.891 15.9992Z" fill="#969F91"/>
</svg>
