<svg width="27" height="27" viewBox="0 0 27 27" fill="none" xmlns="http://www.w3.org/2000/svg">
<path d="M22.4367 13.602C22.4789 13.2222 22.5 12.8987 22.5 12.6314C22.5 11.2529 22.268 11.2459 21.375 11.2459H16.0664C16.5797 10.4019 16.875 9.52983 16.875 8.64366C16.875 5.97812 12.8461 4.677 12.8461 2.45455C12.8461 1.63168 13.2047 0.956499 13.5 0C11.6367 0.492316 10.1672 2.35608 10.1672 4.33238C10.1672 7.72936 14.1258 7.75749 14.1258 10.2964C14.1258 10.6129 14.0273 10.8942 13.9781 11.2459H10.0477C10.1039 11.0349 10.1391 10.8098 10.1391 10.5918C10.1391 8.98828 7.38984 8.20761 7.38984 6.87835C7.38984 6.38604 7.46016 5.97812 7.61484 5.40141C6.70781 5.76009 5.625 6.80802 5.625 7.98958C5.625 9.86741 7.86797 10.0503 8.2125 11.2459H1.125C0.232031 11.2459 0 11.2529 0 12.6314C0 14.0099 0.541406 16.9427 1.98984 20.4381C3.43828 23.9336 5.11172 25.4738 6.29297 26.5007L6.3 26.4866C6.65859 26.8101 7.12969 27 7.65 27H14.85C15.3703 27 15.8414 26.8101 16.2 26.4866L16.207 26.5007C16.8398 25.9521 17.6133 25.2488 18.4148 24.1868C18.7453 24.3274 19.1039 24.447 19.4977 24.5384C20.0883 24.6791 20.6789 24.7494 21.2414 24.7494C22.9289 24.7494 24.4477 24.1024 25.5164 22.9349C26.4586 21.908 27 20.5155 27 19.1229C27 16.3871 25.0312 14.1013 22.4367 13.602ZM21.2414 22.5199C20.6367 22.5199 20.1445 22.4355 19.6875 22.2245C19.9688 21.6619 20.243 21.1063 20.5102 20.4592C21.2203 18.7432 21.7125 17.1537 22.0289 15.8315C23.5758 16.1339 24.75 17.5053 24.75 19.144C24.75 20.7406 23.5406 22.5199 21.2414 22.5199Z" fill="#423B31"/>
</svg>
